:SAMPLES-PER-SECOND 30
:FULLY-SPECIFIED
:DEGREES
67
root  28.0411 48.0427 -6.94236 -75.6344 -73.3951 65.8143
RightUpLeg  17.0031 -16.2074 -19.9573
RightLeg  7.46329 -0.353495 3.98738
RightFoot  38.806 -6.32579 14.1161
RightToes  0.00048216 0.542163 -0.142577
Spine  41.5445 5.34427 -11.6185
Spine1  -9.39182 2.4821 -9.76972
HEad  -3.84847 -13.9299 -0.888943
LeftShoulder1  0.948984 -6.44499 -1.34096
LeftArm  -65.0863 -40.4316 16.5534
LeftForeArm  34.3532 -48.2694 -10.0492
LeftHand  -0.25398 0.0180481 5.50724
RightShoulder  2.33808 10.8023 8.96896
RightArm  -8.72367 1.23297 -14.6011
RightForeArm  1.52716 60.8094 20.6538
RightHand  -4.06738 9.87821 -30.6479
LeftUpLeg  -95.1988 11.4715 -33.5827
LeftLeg  66.3012 4.54408 12.0019
LeftFoot  -10.4305 0.0542575 0.937114
LeftToes  1.06246e-005 4.65856e-005 -8.18504e-006
68
root  26.6067 50.0273 -7.4431 -60.1128 -74.8534 48.5413
RightUpLeg  10.8872 -26.0913 -16.4717
RightLeg  28.2789 9.40517 4.37006
RightFoot  34.4442 -5.22056 12.8913
RightToes  0.00048216 0.542163 -0.142577
Spine  46.6215 5.646 -13.4893
Spine1  -7.68888 0.640838 -3.70657
HEad  -7.18437 -10.6628 0.424468
LeftShoulder1  0.458313 -1.62852 -0.534393
LeftArm  -74.1823 -40.5997 21.0588
LeftForeArm  35.2226 -55.5477 -13.3753
LeftHand  -0.25398 0.0180481 5.50724
RightShoulder  2.50178 11.2624 9.63167
RightArm  2.40976 -7.97825 -13.7778
RightForeArm  -5.58071 53.4782 15.8807
RightHand  -3.62406 8.78704 -29.4772
LeftUpLeg  -92.5064 11.8946 -32.1516
LeftLeg  59.2517 4.80319 9.23628
LeftFoot  -7.49397 0.0161992 0.792552
LeftToes  1.06246e-005 4.65856e-005 -8.18504e-006
69
root  25.0507 51.7436 -7.88229 -39.7256 -73.8771 27.5791
RightUpLeg  0.879771 -28.7863 -10.2726
RightLeg  49.4674 3.72611 4.0902
RightFoot  29.6719 -4.36635 12.2414
RightToes  0.00048216 0.542163 -0.142577
Spine  50.4729 5.57622 -13.7874
Spine1  -5.48674 -1.13969 2.37425
HEad  -11.5 -7.18717 2.09739
LeftShoulder1  0.180432 1.23336 0.597274
LeftArm  -76.1801 -38.6517 21.058
LeftForeArm  34.6993 -60.3837 -16.5927
LeftHand  -0.25398 0.0180481 5.50724
RightShoulder  2.8519 11.9145 11.3514
RightArm  10.7299 -14.8795 -10.7434
RightForeArm  -15.2979 42.2021 11.0532
RightHand  -3.47744 8.65715 -28.583
LeftUpLeg  -87.5632 11.4855 -31.0967
LeftLeg  51.3804 4.88736 7.0036
LeftFoot  -3.56902 -0.0268738 0.743832
LeftToes  1.06246e-005 4.65856e-005 -8.18504e-006
70
root  23.3155 53.2749 -8.07652 -20.4893 -72.5589 8.91882
RightUpLeg  -12.2947 -32.3915 -2.86198
RightLeg  69.108 0.337047 0.464797
RightFoot  25.8042 -4.70072 14.4909
RightToes  0.00048216 0.542163 -0.142577
Spine  52.9473 4.54579 -9.94894
Spine1  -3.67604 -1.34645 5.61518
HEad  -15.5453 -6.23691 3.1394
LeftShoulder1  0.141295 1.51179 1.63448
LeftArm  -70.5562 -34.8043 18.2169
LeftForeArm  35.3918 -63.5632 -19.3433
LeftHand  -0.25398 0.0180481 5.50724
RightShoulder  3.34074 12.1818 14.4622
RightArm  17.4652 -21.0267 -7.89928
RightForeArm  -22.0559 32.4207 8.24237
RightHand  -3.21786 8.12054 -27.5546
LeftUpLeg  -82.4835 12.3148 -29.5222
LeftLeg  44.2065 4.18112 4.76825
LeftFoot  1.17158 0.027148 -0.268691
LeftToes  1.06246e-005 4.65856e-005 -8.18504e-006
71
root  21.5359 54.2036 -7.98286 -4.34985 -72.0203 -6.61926
RightUpLeg  -27.5971 -33.0002 5.1772
RightLeg  87.8649 0.151493 0.76474
RightFoot  21.3762 -4.42681 15.4737
RightToes  0.00048216 0.542163 -0.142577
Spine  54.0755 2.77776 -3.5028
Spine1  -1.58994 -0.0540889 5.88913
HEad  -17.8997 -8.12391 2.44154
LeftShoulder1  0.201663 1.03201 0.409994
LeftArm  -60.8268 -29.0847 15.2875
LeftForeArm  41.3146 -67.689 -23.5519
LeftHand  -0.25398 0.0180481 5.50724
RightShoulder  3.76671 11.7005 18.2461
RightArm  21.7106 -26.5839 -4.81041
RightForeArm  -22.3265 26.7093 6.79498
RightHand  -3.00362 7.59824 -26.7901
LeftUpLeg  -77.7172 15.0237 -26.6566
LeftLeg  38.4185 2.59537 2.58585
LeftFoot  5.77698 0.1812 -1.46024
LeftToes  1.06246e-005 4.65856e-005 -8.18504e-006
72
root  19.6407 54.3944 -7.72521 6.09424 -71.5732 -16.4127
RightUpLeg  -43.0448 -31.5248 10.6803
RightLeg  105.188 -0.934014 4.18761
RightFoot  16.6907 -3.19307 13.1877
RightToes  0.00048216 0.542163 -0.142577
Spine  53.7042 1.20813 1.7226
Spine1  0.811838 1.25291 5.73872
HEad  -19.3706 -9.8491 0.907955
LeftShoulder1  0.233943 1.44734 -3.30972
LeftArm  -50.6164 -22.1921 12.9123
LeftForeArm  52.5393 -72.664 -30.9093
LeftHand  -0.25398 0.0180481 5.50724
RightShoulder  4.20468 11.1947 22.3382
RightArm  23.6649 -30.53 -1.24718
RightForeArm  -19.7685 23.6137 6.0526
RightHand  -2.80919 7.08761 -26.1041
LeftUpLeg  -72.3827 17.8978 -23.198
LeftLeg  34.1031 1.52622 1.45932
LeftFoot  9.29247 0.172016 -1.28121
LeftToes  1.06246e-005 4.65856e-005 -8.18504e-006
